<svg width="16" height="16" viewBox="0 0 16 16" fill="none" xmlns="http://www.w3.org/2000/svg">
  <rect width="16" height="16" rx="3" fill="#4F46E5"/>
  <path d="M4 5.5C4 5.22386 4.22386 5 4.5 5H11.5C11.7761 5 12 5.22386 12 5.5C12 5.77614 11.7761 6 11.5 6H4.5C4.22386 6 4 5.77614 4 5.5Z" fill="white"/>
  <path d="M4 8C4 7.72386 4.22386 7.5 4.5 7.5H11.5C11.7761 7.5 12 7.72386 12 8C12 8.27614 11.7761 8.5 11.5 8.5H4.5C4.22386 8.5 4 8.27614 4 8Z" fill="white"/>
  <path d="M4.5 10C4.22386 10 4 10.2239 4 10.5C4 10.7761 4.22386 11 4.5 11H11.5C11.7761 11 12 10.7761 12 10.5C12 10.2239 11.7761 10 11.5 10H4.5Z" fill="white"/>
</svg>