<svg width="128" height="128" viewBox="0 0 128 128" fill="none" xmlns="http://www.w3.org/2000/svg">
  <rect width="128" height="128" rx="16" fill="#4F46E5"/>
  <path d="M32 44C32 41.7909 33.7909 40 36 40H92C94.2091 40 96 41.7909 96 44C96 46.2091 94.2091 48 92 48H36C33.7909 48 32 46.2091 32 44Z" fill="white"/>
  <path d="M32 64C32 61.7909 33.7909 60 36 60H92C94.2091 60 96 61.7909 96 64C96 66.2091 94.2091 68 92 68H36C33.7909 68 32 66.2091 32 64Z" fill="white"/>
  <path d="M36 80C33.7909 80 32 81.7909 32 84C32 86.2091 33.7909 88 36 88H92C94.2091 88 96 86.2091 96 84C96 81.7909 94.2091 80 92 80H36Z" fill="white"/>
</svg>