<svg width="48" height="48" viewBox="0 0 48 48" fill="none" xmlns="http://www.w3.org/2000/svg">
  <rect width="48" height="48" rx="8" fill="#4F46E5"/>
  <path d="M12 16.5C12 15.6716 12.6716 15 13.5 15H34.5C35.3284 15 36 15.6716 36 16.5C36 17.3284 35.3284 18 34.5 18H13.5C12.6716 18 12 17.3284 12 16.5Z" fill="white"/>
  <path d="M12 24C12 23.1716 12.6716 22.5 13.5 22.5H34.5C35.3284 22.5 36 23.1716 36 24C36 24.8284 35.3284 25.5 34.5 25.5H13.5C12.6716 25.5 12 24.8284 12 24Z" fill="white"/>
  <path d="M13.5 30C12.6716 30 12 30.6716 12 31.5C12 32.3284 12.6716 33 13.5 33H34.5C35.3284 33 36 32.3284 36 31.5C36 30.6716 35.3284 30 34.5 30H13.5Z" fill="white"/>
</svg>